<?xml version="1.0" standalone="no"?>
<!DOCTYPE svg PUBLIC "-//W3C//DTD SVG 20010904//EN"
 "http://www.w3.org/TR/2001/REC-SVG-20010904/DTD/svg10.dtd">
<svg version="1.0" xmlns="http://www.w3.org/2000/svg"
 width="70.000000pt" height="70.000000pt" viewBox="0 0 70.000000 70.000000"
 preserveAspectRatio="xMidYMid meet">
<metadata>
Created by potrace 1.14, written by Peter Selinger 2001-2017
</metadata>
<g transform="translate(0.000000,70.000000) scale(0.100000,-0.100000)"
fill="#000000" stroke="none">
<path d="M276 497 c3 -9 10 -17 14 -17 4 0 5 -11 2 -25 -5 -26 -16 -32 -27
-15 -3 6 -11 10 -17 10 -6 0 -4 -10 5 -24 15 -22 13 -30 -24 -130 -50 -139
-55 -146 -84 -146 -30 0 -33 -20 -5 -27 22 -6 26 -18 10 -28 -6 -3 -10 -2 -10
3 0 6 -10 8 -21 5 -19 -5 -19 -7 -5 -15 25 -14 45 -2 61 36 20 47 35 54 35 17
0 -63 -8 -61 219 -61 148 0 210 3 219 12 12 12 17 114 6 142 -3 9 -15 16 -25
16 -16 0 -19 8 -19 44 0 26 -6 51 -15 60 -8 8 -13 20 -10 28 4 10 -22 13 -132
13 l-138 0 -3 34 c-3 31 -2 33 22 27 13 -3 28 -2 31 4 4 6 -5 10 -21 10 -15 0
-38 10 -51 22 -19 17 -23 19 -17 5z m24 -112 c0 -14 -4 -25 -10 -25 -11 0 -14
33 -3 43 11 11 13 8 13 -18z m215 -45 c-3 -6 5 -10 19 -10 13 0 26 6 29 13 7
20 20 -1 20 -33 0 -17 -6 -36 -13 -43 -10 -10 -12 -9 -7 5 5 14 -6 17 -83 20
-123 4 -140 24 -34 36 l59 7 -80 6 -80 5 88 2 c57 1 86 -2 82 -8z m-259 -78
c-12 -11 -17 7 -9 34 l8 29 3 -28 c2 -16 1 -31 -2 -35z m114 54 c0 -9 -30 -14
-35 -6 -4 6 3 10 14 10 12 0 21 -2 21 -4z m-110 -96 c0 -11 3 -20 8 -20 4 0
13 9 20 20 11 18 23 20 142 20 119 0 131 -2 142 -20 7 -11 17 -20 21 -20 5 0
5 9 2 20 -9 29 21 26 41 -5 11 -16 14 -34 9 -55 -7 -33 -29 -40 -44 -12 -9 16
-10 16 -16 0 -6 -16 -23 -18 -151 -18 -138 0 -144 1 -155 22 l-12 22 -8 -22
c-18 -47 -46 -9 -33 45 9 35 13 43 25 43 5 0 9 -9 9 -20z m0 -120 c0 -5 -2
-10 -4 -10 -3 0 -8 5 -11 10 -3 6 -1 10 4 10 6 0 11 -4 11 -10z m275 4 c-70
-8 -235 -8 -235 -1 0 4 60 6 133 5 72 0 119 -3 102 -4z"/>
<path d="M155 470 c-3 -5 -1 -10 4 -10 6 0 11 5 11 10 0 6 -2 10 -4 10 -3 0
-8 -4 -11 -10z"/>
<path d="M548 463 c6 -2 18 -2 25 0 6 3 1 5 -13 5 -14 0 -19 -2 -12 -5z"/>
<path d="M614 414 c0 -43 2 -51 12 -43 16 13 15 75 0 88 -8 6 -11 -7 -12 -45z"/>
<path d="M47 187 c-3 -7 4 -19 14 -25 22 -14 24 -5 5 21 -11 14 -15 15 -19 4z"/>
</g>
</svg>
